<?xml version="1.0" standalone="no"?>
<!DOCTYPE svg PUBLIC "-//W3C//DTD SVG 20010904//EN"
 "http://www.w3.org/TR/2001/REC-SVG-20010904/DTD/svg10.dtd">
<svg version="1.0" xmlns="http://www.w3.org/2000/svg"
 width="512.000000pt" height="512.000000pt" viewBox="0 0 512.000000 512.000000"
 preserveAspectRatio="xMidYMid meet">

<g transform="translate(0.000000,512.000000) scale(0.100000,-0.100000)"
fill="#000000" stroke="none">
<path d="M2315 5109 c-278 -28 -714 -147 -770 -209 -22 -25 -22 -76 1 -101 25
-27 64 -24 171 17 143 53 330 102 487 126 168 25 492 30 646 9 446 -61 840
-225 1197 -497 53 -40 94 -64 110 -64 19 0 50 24 119 92 52 50 94 87 94 82 1
-5 27 -191 59 -414 32 -223 57 -406 56 -408 -3 -4 -793 107 -814 114 -9 3 8
27 53 73 101 105 94 124 -95 250 -304 204 -694 321 -1066 321 -749 0 -1431
-428 -1751 -1100 -221 -463 -252 -973 -88 -1465 24 -71 47 -158 50 -193 30
-280 189 -510 399 -576 37 -12 75 -35 114 -68 397 -348 954 -527 1461 -468
l83 9 44 -34 c138 -105 339 -103 473 5 83 67 1179 1174 1197 1209 72 144 61
306 -30 425 -33 43 -33 44 -24 117 18 160 7 410 -25 565 l-13 61 216 58 c119
32 221 60 227 62 6 2 17 -34 27 -89 148 -804 -94 -1589 -663 -2158 -380 -381
-863 -617 -1410 -691 -120 -16 -468 -16 -580 0 -360 52 -673 161 -957 332
-212 128 -468 351 -622 542 -434 538 -619 1242 -505 1922 110 655 484 1228
1047 1604 130 87 147 117 99 174 -30 34 -77 22 -181 -46 -468 -307 -847 -801
-1019 -1327 -92 -278 -126 -500 -127 -805 0 -316 33 -527 125 -806 126 -383
329 -709 624 -1005 227 -226 421 -365 701 -500 649 -314 1388 -338 2065 -67
475 190 895 536 1186 979 284 431 430 959 411 1484 -9 225 -48 480 -85 542
-19 33 -81 68 -120 68 -33 0 -501 -123 -532 -140 -28 -15 -68 -67 -74 -97 -4
-16 3 -82 14 -148 22 -130 37 -375 26 -420 -7 -27 -38 2 -819 782 -504 503
-829 820 -858 837 -69 39 -156 66 -234 72 -38 2 -230 -8 -425 -24 -195 -16
-356 -28 -358 -27 -2 2 22 17 53 34 152 86 368 161 570 197 147 26 439 24 597
-4 220 -40 473 -139 656 -257 l73 -47 -45 -48 c-81 -87 -70 -196 25 -245 31
-16 832 -135 909 -135 76 0 135 49 146 121 5 29 -107 861 -122 912 -10 33 -64
86 -97 93 -78 18 -108 5 -198 -83 l-67 -65 -98 70 c-137 97 -229 151 -385 226
-239 115 -475 188 -731 227 -154 23 -482 33 -623 18z m245 -1153 c45 -23 221
-194 943 -914 526 -525 897 -903 910 -927 32 -61 30 -156 -5 -215 -34 -56
-1150 -1171 -1198 -1196 -47 -25 -153 -25 -200 0 -19 10 -145 128 -280 262
-231 229 -248 244 -282 244 -28 0 -42 -7 -57 -26 -41 -52 -33 -65 140 -239
124 -125 157 -164 144 -169 -25 -9 -171 -7 -286 4 -228 24 -418 79 -624 181
-144 72 -303 175 -289 188 5 4 29 14 53 21 59 19 147 73 217 134 51 44 158
170 183 214 8 15 26 1 124 -95 123 -122 142 -131 191 -92 19 15 26 29 26 56 0
33 -12 48 -124 162 l-124 126 18 35 c26 47 96 226 120 303 126 413 130 826 11
1079 -30 63 -31 66 -16 102 23 54 30 154 15 217 -47 201 -247 336 -443 300
-127 -23 -225 -98 -284 -218 -35 -70 -37 -82 -37 -162 1 -114 27 -182 101
-261 38 -42 75 -69 121 -91 37 -17 74 -34 82 -39 70 -35 100 -286 64 -528 -15
-101 -72 -322 -95 -364 -10 -19 -29 -3 -249 217 -254 254 -283 292 -300 398
-7 46 46 832 65 964 9 63 60 156 111 203 53 48 132 87 195 96 144 19 764 62
874 60 121 -1 134 -4 185 -30z m-665 -417 c25 -12 59 -38 76 -58 42 -50 78
-181 50 -181 -5 0 -32 16 -61 35 -79 53 -176 80 -291 80 l-97 0 13 25 c54 105
199 151 310 99z m-892 -384 c-22 -295 -25 -313 -53 -375 -45 -101 -106 -287
-132 -401 -22 -97 -23 -101 -30 -63 -4 21 -10 95 -13 164 -15 257 36 536 141
782 35 82 103 213 108 206 2 -2 -8 -142 -21 -313z m749 104 c157 -34 263 -147
320 -344 21 -73 23 -99 23 -300 -1 -201 -3 -231 -28 -348 -53 -251 -144 -479
-262 -659 -170 -259 -367 -362 -572 -299 -162 50 -263 188 -303 417 -15 89
-13 343 5 459 14 94 61 300 72 318 3 5 16 -11 30 -35 14 -23 39 -61 57 -83
l33 -40 -18 -90 c-32 -156 -43 -320 -30 -434 7 -56 19 -123 26 -149 22 -72 75
-153 123 -187 39 -27 51 -30 115 -30 54 1 82 6 113 22 165 87 337 368 424 695
47 178 63 297 63 458 -1 271 -65 416 -208 469 -73 27 -115 60 -144 111 -23 42
-23 43 24 53 37 9 84 7 137 -4z m-177 -1438 c-71 -129 -188 -232 -247 -218
-84 22 -127 275 -89 531 l13 89 175 -176 176 -175 -28 -51z"/>
<path d="M2539 2581 c-35 -35 -36 -55 -9 -177 46 -213 46 -446 0 -642 -27
-112 -26 -147 4 -177 36 -36 66 -39 163 -16 207 48 443 52 633 11 170 -37 165
-37 206 4 42 42 42 46 4 211 -41 182 -37 422 11 628 23 98 20 127 -17 164 -23
22 -31 25 -77 20 -69 -7 -197 -35 -224 -49 -48 -24 -46 -102 3 -128 19 -11 38
-11 87 -3 34 6 63 9 65 8 2 -2 -4 -50 -12 -108 -21 -135 -20 -362 0 -489 9
-55 13 -102 11 -105 -3 -2 -54 3 -113 12 -124 20 -412 16 -521 -6 -35 -7 -65
-11 -67 -8 -2 2 3 38 12 79 21 104 21 434 0 545 -9 44 -15 81 -14 81 0 1 35
-4 76 -12 118 -21 172 -18 198 9 27 28 28 67 4 97 -15 18 -37 25 -113 37 -52
7 -120 20 -152 28 -90 23 -124 20 -158 -14z"/>
</g>
</svg>
